HIERARCHY
ROOT Hips
{
  OFFSET 0 0 0
  CHANNELS 6 Xposition Yposition Zposition Zrotation Yrotation Xrotation
  JOINT LeftThigh
  {
    OFFSET 8.409438 0 -5.917753
    CHANNELS 3 Zrotation Yrotation Xrotation
    JOINT LeftLeg
    {
      OFFSET 0 0 -42.358652
      CHANNELS 3 Zrotation Yrotation Xrotation
      JOINT LeftFoot
      {
        OFFSET 0 0 -39.357303
        CHANNELS 3 Zrotation Yrotation Xrotation
      }
    }
  }
  JOINT RightThigh
  {
    OFFSET -8.409438 0 -5.917753
    CHANNELS 3 Zrotation Yrotation Xrotation
    JOINT RightLeg
    {
      OFFSET 0 0 -42.358652
      CHANNELS 3 Zrotation Yrotation Xrotation
      JOINT RightFoot
      {
        OFFSET 0 0 -39.357303
        CHANNELS 3 Zrotation Yrotation Xrotation
      }
    }
  }
  JOINT SpineLow
  {
    OFFSET 0 0 4.719101
    CHANNELS 3 Zrotation Yrotation Xrotation
    JOINT SpineMid
    {
      OFFSET 0 0 12.899191
      CHANNELS 3 Zrotation Yrotation Xrotation
      JOINT Chest
      {
        OFFSET 0 0 12.899191
        CHANNELS 3 Zrotation Yrotation Xrotation
        JOINT LeftShoulder
        {
          OFFSET 7.550562 1.41573 9.438202
          CHANNELS 3 Zrotation Yrotation Xrotation
          JOINT LeftArm
          {
            OFFSET 9.155056 0 4.247191
            CHANNELS 3 Zrotation Yrotation Xrotation
            JOINT LeftForearm
            {
              OFFSET 0 0 25.771955
              CHANNELS 3 Zrotation Yrotation Xrotation
              JOINT LeftHand
              {
                OFFSET 0 0 25.197169
                CHANNELS 3 Zrotation Yrotation Xrotation
              }
            }
          }
        }
        JOINT RightShoulder
        {
          OFFSET -7.550562 1.41573 9.438202
          CHANNELS 3 Zrotation Yrotation Xrotation
          JOINT RightArm
          {
            OFFSET -9.155056 0 4.247191
            CHANNELS 3 Zrotation Yrotation Xrotation
            JOINT RightForearm
            {
              OFFSET 0 0 -25.771955
              CHANNELS 3 Zrotation Yrotation Xrotation
              JOINT RightHand
              {
                OFFSET 0 0 -25.197169
                CHANNELS 3 Zrotation Yrotation Xrotation
              }
            }
          }
        }
        JOINT Neck
        {
          OFFSET 0 0 15.101124
          CHANNELS 3 Zrotation Yrotation Xrotation
          JOINT Head
          {
            OFFSET 0 0 11.325843
            CHANNELS 3 Zrotation Yrotation Xrotation
            End Site
            {
              OFFSET 0 0 14.157303
            }
          }
        }
      }
    }
  }
}
MOTION
Frames: 11
Frame Time: 0.0
0.0  101.685394  0.0  -123.738801  50.580552  153.875018  49.701501  -33.428858  -54.266807  -10.064197  26.07438  33.44093  -8.133729  -3.319168  -4.494965  -48.265135  38.668666  -50.787559  11.887222  -1.501939  31.672087  -10.488196  -17.720105  -18.223892  -1.214697  -1.524396  3.232343  -3.521105  -3.994655  8.919434  -3.521105  -3.994654  8.919434  -4.906824  26.515307  12.272562  134.407147  35.194566  -177.742329  -49.099292  -11.45089  109.079293  41.175833  27.477035  25.425208  0.563207  -2.370946  17.762865  68.880528  42.133687  38.082569  -23.30183  6.101029  -136.209707  50.714484  39.014545  22.814157  -6.13161  -12.306016  7.67693  -4.424952  -9.308918  5.610841  
0.0  101.685394  0.0  -122.929917  50.741542  154.669752  50.248512  -33.090772  -54.33278  -10.139843  25.945298  33.406905  -7.985643  -3.239168  -4.554162  -45.501309  39.741893  -51.020332  6.157883  0.936346  35.832475  -7.670452  -17.576194  -18.097179  -1.494023  -1.468368  3.19913  -4.274112  -3.806196  8.840515  -4.274111  -3.806196  8.840515  -4.238604  27.328772  12.367943  132.908395  36.520776  -176.428855  -49.113931  -13.609266  108.52272  38.222164  26.284908  23.8555  1.264093  -1.864115  18.264577  66.400544  42.381575  36.676081  -23.677102  5.96274  -136.751616  50.695888  38.06201  22.836206  -5.460351  -12.30503  8.088517  -3.915058  -9.303411  5.931942  
0.0  101.685394  0.0  -122.061789  50.427663  155.477696  52.26283  -32.0078  -55.294221  -11.816979  26.143051  33.048082  -7.982193  -3.092683  -4.643146  -41.743994  41.16356  -50.446899  1.380109  3.365601  40.249879  -5.116792  -17.31257  -18.369704  -1.729239  -1.499736  3.170122  -4.919107  -3.862235  8.776708  -4.919107  -3.862235  8.776708  -4.12469  28.308745  12.433807  130.94284  38.339007  -175.531172  -49.242773  -16.379939  107.624015  35.07114  24.501548  22.907749  1.176397  -1.417718  18.920809  64.402164  42.51997  35.623796  -24.317813  6.026876  -137.441154  50.744129  37.11156  22.778838  -4.995029  -12.246067  8.455334  -3.560914  -9.256071  6.216156  
0.0  101.685394  0.0  -121.929161  50.188671  155.427903  55.013417  -30.165641  -56.308011  -15.035719  26.901501  32.392162  -7.820361  -2.959304  -4.717771  -37.974916  42.970605  -49.725266  -1.553774  5.195633  44.723815  -3.498263  -16.976397  -18.703716  -1.995123  -1.510921  3.174215  -5.646892  -3.856752  8.803619  -5.646892  -3.856752  8.803619  -4.265902  29.531694  12.350708  128.237254  40.532215  -175.414833  -49.349652  -19.351185  106.398387  31.773707  22.316358  22.245217  1.086992  -0.958692  19.433211  62.26895  42.548671  34.500316  -24.819797  6.040849  -137.909722  50.779779  36.316532  22.554382  -4.660919  -12.125959  8.796686  -3.306427  -9.164038  6.47938  
0.0  101.685394  0.0  -122.465595  49.690701  154.583764  57.841189  -28.124251  -57.390048  -18.839801  27.879132  31.701294  -7.983523  -2.868134  -4.709862  -35.237848  44.48039  -49.045095  -2.202314  5.590212  48.997495  -3.108844  -16.536305  -18.918031  -2.315495  -1.537741  3.174572  -6.52545  -3.886685  8.82499  -6.525451  -3.886685  8.824991  -4.4007  30.907556  12.581972  124.868099  43.146656  -176.059834  -49.28411  -22.092618  104.784396  28.490228  19.838753  21.698974  0.596571  -0.475472  20.21947  60.675205  42.478615  33.536277  -24.783233  5.466352  -137.453984  50.51633  35.804584  21.472405  -4.495699  -11.985975  9.274333  -3.17593  -9.060361  6.84126  
0.0  101.685394  0.0  -123.503309  49.142635  153.341913  60.1823  -26.085593  -58.343329  -22.111418  28.740508  31.367817  -8.188528  -2.905829  -4.734752  -33.704146  45.587274  -48.496371  -1.246697  4.504969  52.828042  -3.775348  -15.966143  -19.209387  -2.665412  -1.55664  3.151635  -7.482305  -3.893531  8.783717  -7.482305  -3.893531  8.783717  -4.427419  32.15979  12.911814  121.034558  45.801932  -177.260195  -48.815527  -24.368754  102.78346  25.367719  17.213724  21.252029  0.146401  0.069181  20.925711  58.969826  41.940158  32.636009  -24.779421  5.429895  -137.908155  50.519495  35.329037  21.116619  -4.430516  -11.821635  9.773991  -3.120437  -8.939947  7.21791  
0.0  101.685394  0.0  -124.561073  48.744274  152.242957  61.704464  -24.415221  -59.01384  -24.073583  29.299965  31.637181  -9.108638  -2.906564  -4.832843  -32.965745  46.162173  -48.358393  0.475337  2.423618  56.348817  -4.017624  -16.581486  -21.411693  -2.972206  -1.559298  3.129727  -8.319185  -3.862254  8.740858  -8.319186  -3.862254  8.740859  -4.942048  33.016518  12.454306  117.236907  47.952359  -178.850821  -47.995094  -26.083826  100.503678  22.389813  14.653012  20.99714  -0.563971  0.623848  21.394731  57.786542  41.4322  31.934761  -24.67197  5.19877  -138.042905  50.605586  34.89808  20.814388  -4.401518  -11.675749  10.100876  -3.095212  -8.832559  7.464538  
0.0  101.685394  0.0  -125.634523  48.289184  151.756038  62.120358  -23.175504  -59.739912  -24.235651  29.321113  32.570125  -9.857254  -2.934598  -4.967954  -33.387285  46.130466  -49.22442  2.176444  -0.290513  59.665114  -6.069946  -15.923639  -21.766294  -3.280601  -1.587945  3.017583  -9.159278  -3.914579  8.455402  -9.159277  -3.914579  8.455402  -5.247532  33.51304  11.503117  113.472561  49.420554  179.343465  -46.817531  -27.320289  98.144423  19.916641  12.119398  21.024507  -1.120378  1.179283  21.710458  56.44641  40.487527  31.495066  -24.630799  5.2378  -138.424729  50.651687  34.422349  20.556375  -4.328579  -11.541068  10.393317  -3.037717  -8.732528  7.686132  
0.0  101.685394  0.0  -126.920734  47.850669  150.732214  61.173128  -23.180139  -59.86924  -23.031543  28.978547  33.797309  -10.306715  -2.806044  -5.252424  -34.148985  45.992758  -50.054823  3.400195  -2.76993  62.869122  -6.893075  -16.391629  -23.650566  -3.67759  -1.620363  2.977117  -10.245742  -3.957431  8.371643  -10.245742  -3.957431  8.371643  -5.473214  34.314555  10.383759  110.291934  50.743716  177.570982  -45.31487  -28.594085  95.853732  17.9721  9.454033  21.380684  -1.438603  1.869114  21.979594  55.456724  39.611216  31.325928  -24.780205  5.346487  -138.658658  50.609735  33.926149  20.236614  -4.073284  -11.305037  10.603586  -2.847521  -8.552585  7.850868  
0.0  101.685394  0.0  -127.676499  47.704066  150.007827  59.887193  -23.92908  -59.674294  -21.495058  28.675944  34.885185  -10.485258  -2.507641  -5.349513  -35.183535  45.526952  -51.507667  3.995994  -4.283573  65.932955  -8.246042  -15.94158  -23.284381  -4.055533  -1.636949  3.004657  -11.281687  -3.948957  8.470083  -11.281687  -3.948957  8.470083  -5.685486  35.055776  9.108623  107.457504  52.0178  176.074958  -43.715822  -30.232643  93.560332  16.536453  6.534371  22.047078  -1.311141  2.418932  21.957769  54.373641  38.752747  31.354924  -24.97709  5.51978  -138.812462  50.56519  33.3998  19.790607  -3.62552  -11.051108  10.578828  -2.518082  -8.35409  7.843371  
0.0  101.685394  0.0  -130.787317  46.808355  145.96316  56.00076  -26.201031  -58.239762  -20.068529  28.669269  35.692347  -10.225096  -2.226708  -5.390234  -37.800874  45.60777  -52.15241  4.196793  -4.312646  69.070599  -8.3115  -15.565892  -22.66709  -4.755678  -1.598225  3.249857  -13.199918  -3.702745  9.166456  -13.199918  -3.702745  9.166455  -5.908007  35.710246  7.864353  104.839375  53.2973  174.743765  -42.104091  -32.076777  91.150425  15.373716  3.454183  22.867238  -1.098324  2.850877  21.974136  53.38  38.047625  31.507878  -25.181835  5.66994  -138.795072  50.514541  32.894979  19.189949  -3.129755  -10.776268  10.458849  -2.154689  -8.138584  7.765311  
